<?xml version="1.0" encoding="UTF-8" standalone="no"?>
<!-- Created with Inkscape (http://www.inkscape.org/) -->

<svg
   viewBox="0 280 1920 520"
   version="1.1"
   id="svg1"
   xml:space="preserve"
   inkscape:version="1.4 (86a8ad7, 2024-10-11)"
   sodipodi:docname="banner.svg"
   xmlns:inkscape="http://www.inkscape.org/namespaces/inkscape"
   xmlns:sodipodi="http://sodipodi.sourceforge.net/DTD/sodipodi-0.dtd"
   xmlns:xlink="http://www.w3.org/1999/xlink"
   xmlns="http://www.w3.org/2000/svg"
   xmlns:svg="http://www.w3.org/2000/svg"><sodipodi:namedview
     id="namedview1"
     pagecolor="#ffffff"
     bordercolor="#000000"
     borderopacity="0.25"
     inkscape:showpageshadow="2"
     inkscape:pageopacity="0.0"
     inkscape:pagecheckerboard="0"
     inkscape:deskcolor="#d1d1d1"
     inkscape:document-units="px"
     inkscape:zoom="1.6250361"
     inkscape:cx="789.82858"
     inkscape:cy="698.75369"
     inkscape:window-width="2560"
     inkscape:window-height="1526"
     inkscape:window-x="-11"
     inkscape:window-y="34"
     inkscape:window-maximized="1"
     inkscape:current-layer="layer1" /><defs
     id="defs1"><linearGradient
       id="linearGradient5"
       inkscape:collect="always"><stop
         style="stop-color:#ffffff;stop-opacity:0;"
         offset="0.14705883"
         id="stop5" /><stop
         style="stop-color:#ffffff;stop-opacity:1;"
         offset="1"
         id="stop6" /></linearGradient><linearGradient
       inkscape:collect="always"
       xlink:href="#linearGradient5"
       id="linearGradient6"
       x1="1291.8305"
       y1="527.41694"
       x2="1862.3368"
       y2="527.41694"
       gradientUnits="userSpaceOnUse"
       gradientTransform="matrix(1.3167871,0,0,1.3167871,-588.68487,-151.08427)" /><filter
       style="color-interpolation-filters:sRGB;"
       inkscape:label="Drop Shadow"
       id="filter18"
       x="-0.020895492"
       y="-0.028984596"
       width="1.0454784"
       height="1.0745081"><feFlood
         result="flood"
         in="SourceGraphic"
         flood-opacity="0.337255"
         flood-color="rgb(0,0,0)"
         id="feFlood17" /><feGaussianBlur
         result="blur"
         in="SourceGraphic"
         stdDeviation="6.535948"
         id="feGaussianBlur17" /><feOffset
         result="offset"
         in="blur"
         dx="2.768730"
         dy="8.957655"
         id="feOffset17" /><feComposite
         result="comp1"
         operator="in"
         in="flood"
         in2="offset"
         id="feComposite17" /><feComposite
         result="comp2"
         operator="over"
         in="SourceGraphic"
         in2="comp1"
         id="feComposite18" /></filter><clipPath
       clipPathUnits="userSpaceOnUse"
       id="clipPath20"><rect
         style="fill:#6526e1;fill-opacity:0;stroke-width:0.741439"
         id="rect20"
         width="1878.7996"
         height="505.66699"
         x="27.430798"
         y="296.87482"
         ry="77.510994"
         inkscape:label="mask" /></clipPath></defs><g
     inkscape:label="图层 1"
     inkscape:groupmode="layer"
     id="layer1"><rect
       style="display:inline;fill:#262ae1;fill-opacity:1;stroke-width:0.750309"
       id="rect1"
       width="1901.2765"
       height="511.7164"
       x="8.3949461"
       y="285.44727"
       ry="78.438271"
       inkscape:label="background" /><path
       d="m 1300.0021,272.66131 c -1.3999,0.0464 -6.0884,0.18556 -10.3808,0.32547 -53.9362,1.72636 -110.2758,8.42128 -160.3863,19.03585 -6.0421,1.28307 -16.6803,3.75631 -16.8437,3.8962 -0.07,0.0934 37.6538,71.52772 37.9336,71.85421 0.093,0.0934 2.6338,-0.63079 5.6433,-1.58734 47.8941,-15.44373 96.2567,-24.49552 145.4338,-27.17831 13.8807,-0.74651 36.6722,-0.95649 49.9231,-0.46665 42.7386,1.60972 84.0082,7.81645 123.1774,18.54767 20.1561,5.52885 40.543,12.59526 55.52,19.29068 2.5663,1.14317 7.0245,3.08032 9.9173,4.31683 19.8994,8.39838 37.4168,16.86808 54.8202,26.50284 56.7823,31.42397 103.5108,71.19872 138.0375,117.50646 18.4299,24.7053 33.407,51.81404 42.3885,76.65923 1.913,5.31897 3.9185,11.92086 3.8257,12.59742 -0.045,0.30324 -22.7926,28.76437 -50.5771,63.29117 l -50.5065,62.75384 -123.8989,0.0247 h -123.8986 l -0.1415,-31.07449 c -0.094,-17.10014 -0.2329,-64.57549 -0.3256,-105.47091 -0.07,-40.89554 -0.2361,-74.41934 -0.3286,-74.48851 -0.092,-0.0455 -14.2755,-0.0232 -31.4919,0.046 l -31.3079,0.1658 0.1627,105.49241 0.1874,105.4924 -51.0683,0.16272 c -28.0647,0.0935 -51.1127,0.23579 -51.182,0.32853 -0.3031,0.30324 -19.6444,72.36342 -19.481,72.52659 0.1398,0.14011 369.2749,0.93533 454.2383,0.98248 l 24.5164,0.0214 69.8465,-94.54988 c 42.2483,-57.15576 69.8493,-94.71506 69.8493,-94.99504 -0.046,-0.65332 -5.3898,-14.88609 -8.7259,-23.21451 -23.5621,-58.92867 -54.0535,-109.64364 -91.6362,-152.49868 -13.7641,-15.70044 -29.7685,-31.54255 -45.6555,-45.21324 -35.0866,-30.16418 -75.0233,-55.31069 -120.7947,-76.02673 -44.6746,-20.22604 -89.2571,-34.08553 -138.971,-43.18375 -34.9001,-6.39218 -68.0044,-9.88922 -109.4132,-11.5689 v -0.002 c -5.622,-0.23251 -42.8772,-0.46422 -48.4063,-0.3009 z"
       style="display:inline;fill:url(#linearGradient6);stroke:#ffffff;stroke-width:0.024;stroke-dasharray:none;stroke-opacity:1;filter:url(#filter18)"
       id="path4"
       inkscape:label="logo"
       transform="matrix(1.0119632,0,0,1.0119632,-27.801392,-15.766966)"
       clip-path="url(#clipPath20)" /><text
       xml:space="preserve"
       style="font-style:normal;font-variant:normal;font-weight:bold;font-stretch:normal;font-size:34.475px;font-family:'HarmonyOS Sans SC';-inkscape-font-specification:'HarmonyOS Sans SC Bold';text-align:start;writing-mode:lr-tb;direction:ltr;text-anchor:start;white-space:pre;inline-size:932.9;display:inline;fill:#ffffff;fill-opacity:0.564403;fill-rule:nonzero;stroke:none;stroke-width:0.0172375;stroke-dasharray:none;stroke-opacity:1"
       x="124.21169"
       y="659.12805"
       id="text23-7"
       inkscape:label="sub-title"
       transform="translate(1.4920414,7.6020179)"><tspan
         x="124.21169"
         y="659.12805"
         id="tspan3"><tspan
           style="font-weight:300;-inkscape-font-specification:'HarmonyOS Sans SC Light'"
           id="tspan1">Code · Music · Art · Love   |   </tspan><tspan
           style="font-weight:300;-inkscape-font-specification:'HarmonyOS Sans SC Light'"
           id="tspan2">一个天天都在想她的白痴</tspan></tspan></text><text
       xml:space="preserve"
       style="font-style:normal;font-variant:normal;font-weight:normal;font-stretch:normal;font-size:216.828px;font-family:'HarmonyOS Sans SC';-inkscape-font-specification:'HarmonyOS Sans SC';text-align:start;writing-mode:lr-tb;direction:ltr;text-anchor:start;opacity:1;fill:#ffffff;fill-opacity:1;fill-rule:nonzero;stroke:none;stroke-width:0.0487859;stroke-dasharray:none;stroke-opacity:1"
       x="110.89666"
       y="610.35333"
       id="text21"
       inkscape:label="title"><tspan
         sodipodi:role="line"
         x="110.89666"
         y="610.35333"
         style="font-style:normal;font-variant:normal;font-weight:bold;font-stretch:normal;font-family:'HarmonyOS Sans SC';-inkscape-font-specification:'HarmonyOS Sans SC Bold';fill:#ffffff;fill-opacity:1;stroke:none;stroke-width:0.0487859;stroke-opacity:1"
         id="tspan22">DvdBr3o</tspan></text></g></svg>
