<?xml version="1.0" encoding="UTF-8" standalone="no"?>
<!-- Created with Inkscape (http://www.inkscape.org/) -->

<svg
   viewBox="0 280 1920 520"
   version="1.1"
   id="svg1"
   xml:space="preserve"
   inkscape:version="1.4 (86a8ad7, 2024-10-11)"
   sodipodi:docname="banner.svg"
   xmlns:inkscape="http://www.inkscape.org/namespaces/inkscape"
   xmlns:sodipodi="http://sodipodi.sourceforge.net/DTD/sodipodi-0.dtd"
   xmlns:xlink="http://www.w3.org/1999/xlink"
   xmlns="http://www.w3.org/2000/svg"
   xmlns:svg="http://www.w3.org/2000/svg"><sodipodi:namedview
     id="namedview1"
     pagecolor="#ffffff"
     bordercolor="#000000"
     borderopacity="0.25"
     inkscape:showpageshadow="2"
     inkscape:pageopacity="0.0"
     inkscape:pagecheckerboard="0"
     inkscape:deskcolor="#d1d1d1"
     inkscape:document-units="px"
     inkscape:zoom="0.57453702"
     inkscape:cx="634.42387"
     inkscape:cy="874.61726"
     inkscape:window-width="2560"
     inkscape:window-height="1526"
     inkscape:window-x="-11"
     inkscape:window-y="34"
     inkscape:window-maximized="1"
     inkscape:current-layer="layer1" /><defs
     id="defs1"><linearGradient
       id="linearGradient5"
       inkscape:collect="always"><stop
         style="stop-color:#ffffff;stop-opacity:0;"
         offset="0.14705883"
         id="stop5" /><stop
         style="stop-color:#ffffff;stop-opacity:1;"
         offset="1"
         id="stop6" /></linearGradient><linearGradient
       inkscape:collect="always"
       xlink:href="#linearGradient5"
       id="linearGradient6"
       x1="1291.8305"
       y1="527.41694"
       x2="1862.3368"
       y2="527.41694"
       gradientUnits="userSpaceOnUse"
       gradientTransform="matrix(1.3167871,0,0,1.3167871,-588.68487,-151.08427)" /><filter
       style="color-interpolation-filters:sRGB;"
       inkscape:label="Drop Shadow"
       id="filter18"
       x="-0.020895492"
       y="-0.028984596"
       width="1.0454784"
       height="1.0745081"><feFlood
         result="flood"
         in="SourceGraphic"
         flood-opacity="0.337255"
         flood-color="rgb(0,0,0)"
         id="feFlood17" /><feGaussianBlur
         result="blur"
         in="SourceGraphic"
         stdDeviation="6.535948"
         id="feGaussianBlur17" /><feOffset
         result="offset"
         in="blur"
         dx="2.768730"
         dy="8.957655"
         id="feOffset17" /><feComposite
         result="comp1"
         operator="in"
         in="flood"
         in2="offset"
         id="feComposite17" /><feComposite
         result="comp2"
         operator="over"
         in="SourceGraphic"
         in2="comp1"
         id="feComposite18" /></filter><clipPath
       clipPathUnits="userSpaceOnUse"
       id="clipPath20"><rect
         style="fill:#6526e1;fill-opacity:0;stroke-width:0.741439"
         id="rect20"
         width="1878.7996"
         height="505.66699"
         x="27.430798"
         y="296.87482"
         ry="77.510994"
         inkscape:label="mask" /></clipPath></defs><g
     inkscape:label="图层 1"
     inkscape:groupmode="layer"
     id="layer1"><rect
       style="display:inline;fill:#262ae1;fill-opacity:1;stroke-width:0.750309"
       id="rect1"
       width="1901.2765"
       height="511.7164"
       x="8.3949461"
       y="285.44727"
       ry="78.438271"
       inkscape:label="background" /><path
       d="m 1300.0021,272.66131 c -1.3999,0.0464 -6.0884,0.18556 -10.3808,0.32547 -53.9362,1.72636 -110.2758,8.42128 -160.3863,19.03585 -6.0421,1.28307 -16.6803,3.75631 -16.8437,3.8962 -0.07,0.0934 37.6538,71.52772 37.9336,71.85421 0.093,0.0934 2.6338,-0.63079 5.6433,-1.58734 47.8941,-15.44373 96.2567,-24.49552 145.4338,-27.17831 13.8807,-0.74651 36.6722,-0.95649 49.9231,-0.46665 42.7386,1.60972 84.0082,7.81645 123.1774,18.54767 20.1561,5.52885 40.543,12.59526 55.52,19.29068 2.5663,1.14317 7.0245,3.08032 9.9173,4.31683 19.8994,8.39838 37.4168,16.86808 54.8202,26.50284 56.7823,31.42397 103.5108,71.19872 138.0375,117.50646 18.4299,24.7053 33.407,51.81404 42.3885,76.65923 1.913,5.31897 3.9185,11.92086 3.8257,12.59742 -0.045,0.30324 -22.7926,28.76437 -50.5771,63.29117 l -50.5065,62.75384 -123.8989,0.0247 h -123.8986 l -0.1415,-31.07449 c -0.094,-17.10014 -0.2329,-64.57549 -0.3256,-105.47091 -0.07,-40.89554 -0.2361,-74.41934 -0.3286,-74.48851 -0.092,-0.0455 -14.2755,-0.0232 -31.4919,0.046 l -31.3079,0.1658 0.1627,105.49241 0.1874,105.4924 -51.0683,0.16272 c -28.0647,0.0935 -51.1127,0.23579 -51.182,0.32853 -0.3031,0.30324 -19.6444,72.36342 -19.481,72.52659 0.1398,0.14011 369.2749,0.93533 454.2383,0.98248 l 24.5164,0.0214 69.8465,-94.54988 c 42.2483,-57.15576 69.8493,-94.71506 69.8493,-94.99504 -0.046,-0.65332 -5.3898,-14.88609 -8.7259,-23.21451 -23.5621,-58.92867 -54.0535,-109.64364 -91.6362,-152.49868 -13.7641,-15.70044 -29.7685,-31.54255 -45.6555,-45.21324 -35.0866,-30.16418 -75.0233,-55.31069 -120.7947,-76.02673 -44.6746,-20.22604 -89.2571,-34.08553 -138.971,-43.18375 -34.9001,-6.39218 -68.0044,-9.88922 -109.4132,-11.5689 v -0.002 c -5.622,-0.23251 -42.8772,-0.46422 -48.4063,-0.3009 z"
       style="display:inline;fill:url(#linearGradient6);stroke:#ffffff;stroke-width:0.024;stroke-dasharray:none;stroke-opacity:1;filter:url(#filter18)"
       id="path4"
       inkscape:label="logo"
       transform="matrix(1.0119632,0,0,1.0119632,-27.801392,-15.766966)"
       clip-path="url(#clipPath20)" /><g
       id="text23-7"
       style="font-weight:bold;font-size:34.475px;font-family:'HarmonyOS Sans SC';-inkscape-font-specification:'HarmonyOS Sans SC Bold';white-space:pre;inline-size:932.9;fill:#ffffff;fill-opacity:0.564403;stroke-width:0.0172375"
       inkscape:label="sub-title"
       transform="translate(1.4920414,7.6020179)"
       aria-label="Code · Music · Art · Love   |   一个天天都在想她的白痴"><path
         style="font-weight:300;-inkscape-font-specification:'HarmonyOS Sans SC Light';display:inline"
         d="m 137.20801,657.57668 q 2.3443,0 3.93015,-1.1032 1.62033,-1.13768 2.4822,-3.0338 l 1.6548,0.9653 q -0.93082,2.30982 -3.06827,3.68882 -2.10298,1.379 -4.9644,1.379 -3.13723,0 -5.68838,-1.62032 -2.51667,-1.6548 -3.96462,-4.61965 -1.44795,-2.96485 -1.44795,-6.7571 0,-3.79225 1.44795,-6.72263 1.44795,-2.96485 3.96462,-4.58517 2.55115,-1.6548 5.68838,-1.6548 2.86142,0 4.9644,1.379 2.13745,1.379 3.06827,3.68882 l -1.6548,0.9653 q -0.86187,-1.89612 -2.4822,-2.99932 -1.58585,-1.13768 -3.93015,-1.13768 -2.6201,0 -4.65412,1.41348 -1.99955,1.379 -3.13723,3.89567 -1.1032,2.51668 -1.1032,5.75733 0,3.24065 1.1032,5.75732 1.13768,2.51668 3.13723,3.93015 2.03402,1.41348 4.65412,1.41348 z m 10.96303,-7.41213 q 0,-2.68905 1.1032,-4.8265 1.13768,-2.13745 3.0338,-3.3096 1.89613,-1.20662 4.10253,-1.20662 2.2064,0 4.06805,1.17215 1.89612,1.17215 3.03379,3.3096 1.13768,2.13745 1.13768,4.86097 0,2.68905 -1.13768,4.8265 -1.13767,2.10298 -3.03379,3.3096 -1.86165,1.17215 -4.06805,1.17215 -2.2064,0 -4.10253,-1.17215 -1.89612,-1.17215 -3.0338,-3.3096 -1.1032,-2.13745 -1.1032,-4.8265 z m 2.03403,0 q 0,2.24088 0.8274,3.93015 0.8274,1.68928 2.24087,2.6201 1.44795,0.89635 3.13723,0.89635 1.72375,0 3.10275,-0.89635 1.41347,-0.93082 2.24087,-2.6201 0.8274,-1.68927 0.8274,-3.93015 0,-2.24087 -0.8274,-3.93015 -0.8274,-1.72375 -2.24087,-2.6201 -1.379,-0.93082 -3.10275,-0.93082 -1.68928,0 -3.13723,0.93082 -1.41347,0.89635 -2.24087,2.6201 -0.8274,1.68928 -0.8274,3.93015 z m 32.16515,-17.2375 h 1.96507 v 26.201 h -1.72375 q -0.069,-3.10275 -0.1379,-3.9991 -0.8274,2.13745 -2.55115,3.24065 -1.72375,1.1032 -3.75777,1.1032 -2.0685,0 -3.8612,-1.1032 -1.75823,-1.1032 -2.82695,-3.20617 -1.03425,-2.13745 -1.03425,-5.03335 0,-2.86143 1.03425,-4.9644 1.06872,-2.10298 2.82695,-3.20618 1.7927,-1.13767 3.8612,-1.13767 2.03402,0 3.68882,1.06872 1.6548,1.03425 2.51668,3.06828 z m -5.99865,24.6841 q 1.5169,0 2.86142,-0.72397 1.379,-0.75845 2.24088,-2.41325 0.89635,-1.68928 0.89635,-4.34385 0,-2.6201 -0.89635,-4.2749 -0.86188,-1.68928 -2.24088,-2.41325 -1.34452,-0.75845 -2.86142,-0.75845 -1.68928,0 -3.0338,0.86187 -1.34453,0.86188 -2.10298,2.55115 -0.75845,1.68928 -0.75845,4.03358 0,2.37877 0.75845,4.06805 0.79293,1.68927 2.10298,2.55115 1.34452,0.86187 3.0338,0.86187 z m 20.85737,-16.78932 q 2.2064,0 3.82672,1.06872 1.6548,1.06873 2.51668,2.8959 0.89635,1.7927 0.89635,3.9991 0,0.72398 -0.10343,1.5169 h -13.16945 q 0.1379,3.55093 1.86165,5.44705 1.75823,1.89613 4.5507,1.89613 1.55138,0 2.758,-0.65503 1.2411,-0.65502 1.9306,-1.96507 l 1.5169,0.86187 q -0.72397,1.72375 -2.4822,2.65458 -1.72375,0.93082 -3.82672,0.93082 -2.30983,0 -4.20595,-1.1032 -1.89613,-1.13767 -3.0338,-3.27512 -1.1032,-2.13745 -1.1032,-5.06783 0,-2.82695 1.06872,-4.89545 1.1032,-2.10297 2.93038,-3.20617 1.86165,-1.1032 4.06805,-1.1032 z m -0.069,1.7927 q -2.30983,0 -3.93015,1.58585 -1.62033,1.58585 -1.9306,4.48175 h 11.06647 q 0,-2.72353 -1.41347,-4.37833 -1.379,-1.68927 -3.79225,-1.68927 z m 26.71816,5.44705 q -0.58608,0 -1.03425,-0.44818 -0.4137,-0.44817 -0.4137,-1.03425 0,-0.62055 0.4137,-1.03425 0.4137,-0.4137 0.99977,-0.4137 0.62055,0 1.03425,0.4137 0.4137,0.4137 0.4137,1.03425 0,0.58608 -0.4137,1.03425 -0.4137,0.44818 -0.99977,0.44818 z m 42.19741,-14.16923 h 1.68928 v 25.2357 h -1.96508 v -21.2366 l -8.86007,13.96238 h -1.20663 l -8.92902,-13.99685 v 21.27107 h -1.96508 v -25.2357 h 1.7927 l 9.75643,15.4448 z m 19.6852,7.27423 h 1.9306 v 17.96147 h -1.68927 q 0,-0.44817 -0.0345,-0.6895 0,-1.68927 -0.10342,-2.758 -0.79293,1.82718 -2.41325,2.82695 -1.62033,0.9653 -3.61988,0.9653 -2.72352,0 -4.44727,-1.82717 -1.68928,-1.82718 -1.68928,-5.20573 v -11.27332 h 1.9306 v 10.7562 q 0,2.758 1.2411,4.24042 1.2411,1.44795 3.37855,1.44795 1.44795,0 2.68905,-0.65502 1.27558,-0.6895 2.03403,-2.03403 0.79292,-1.379 0.79292,-3.27512 z m 19.03019,13.1005 q 0,2.3443 -1.72375,3.79225 -1.72375,1.41347 -4.44727,1.41347 -2.41325,0 -4.24043,-1.1032 -1.82717,-1.13767 -2.41325,-3.1717 l 1.5169,-0.86187 q 0.58608,1.6548 1.9306,2.51667 1.379,0.8274 3.20618,0.8274 1.86165,0 2.99932,-0.86187 1.13768,-0.89635 1.13768,-2.37878 0,-1.13767 -0.65503,-1.86165 -0.62055,-0.72397 -1.58585,-1.1032 -0.93082,-0.4137 -2.51667,-0.89635 -1.7927,-0.5516 -2.86143,-1.03425 -1.06872,-0.51712 -1.82717,-1.41347 -0.72398,-0.93083 -0.72398,-2.37878 0,-2.24087 1.72375,-3.5854 1.72375,-1.34452 4.2749,-1.34452 2.17193,0 3.75778,0.99977 1.58585,0.9653 2.17192,2.65458 l -1.5169,0.89635 q -0.48265,-1.27558 -1.68927,-1.99955 -1.20663,-0.75845 -2.79248,-0.75845 -1.68927,0 -2.79247,0.79292 -1.06873,0.79293 -1.06873,2.17193 0,0.9653 0.58608,1.62032 0.58607,0.62055 1.44795,0.99978 0.89635,0.34475 2.37877,0.79292 1.82718,0.5516 2.96485,1.1032 1.13768,0.51713 1.9306,1.55138 0.8274,0.99977 0.8274,2.6201 z m 5.20574,-17.03065 q -0.58607,0 -0.99977,-0.4137 -0.4137,-0.44818 -0.4137,-1.03425 0,-0.58608 0.4137,-1.03425 0.44817,-0.44818 0.99977,-0.44818 0.62055,0 1.03425,0.44818 0.4137,0.4137 0.4137,1.03425 0,0.58607 -0.44817,1.03425 -0.4137,0.4137 -0.99978,0.4137 z m 0.9653,21.89162 h -1.9306 v -17.927 h 1.9306 z m 13.1005,-1.5169 q 3.13723,0 4.5507,-2.68905 l 1.55138,0.89635 q -0.86188,1.82718 -2.4822,2.758 -1.58585,0.89635 -3.5854,0.89635 -2.30983,0 -4.20595,-1.17215 -1.86165,-1.17215 -2.96485,-3.27512 -1.06873,-2.13745 -1.06873,-4.89545 0,-2.758 1.06873,-4.86098 1.1032,-2.13745 2.96485,-3.27512 1.89612,-1.17215 4.20595,-1.17215 1.99955,0 3.61987,0.93082 1.62033,0.89635 2.44773,2.72353 l -1.55138,0.89635 q -1.41347,-2.68905 -4.5507,-2.68905 -1.7927,0 -3.20617,0.89635 -1.379,0.89635 -2.17193,2.58562 -0.79292,1.68928 -0.79292,3.96463 0,2.27535 0.79292,3.96462 0.79293,1.68928 2.17193,2.6201 1.41347,0.89635 3.20617,0.89635 z m 24.82205,-9.54957 q -0.58608,0 -1.03425,-0.44818 -0.4137,-0.44817 -0.4137,-1.03425 0,-0.62055 0.4137,-1.03425 0.4137,-0.4137 0.99977,-0.4137 0.62055,0 1.03425,0.4137 0.4137,0.4137 0.4137,1.03425 0,0.58608 -0.4137,1.03425 -0.4137,0.44818 -0.99977,0.44818 z m 28.40744,-14.16923 10.03222,25.2357 h -2.30982 l -3.06828,-7.92925 h -11.032 l -2.96485,7.92925 h -2.10297 l 9.72195,-25.2357 z m 3.96462,15.4448 -4.89545,-12.65232 -4.75755,12.65232 z m 29.95877,9.2393 q -1.2411,0.89635 -3.1717,0.89635 -2.13745,0 -3.41303,-1.20662 -1.2411,-1.2411 -1.2411,-4.2749 v -11.13543 h -2.86142 v -1.68927 h 2.86142 v -4.9644 h 1.96508 v 4.9644 h 5.03335 v 1.68927 h -5.03335 v 10.8941 q 0,2.10298 0.72397,2.99933 0.75845,0.86187 2.17193,0.86187 1.2411,0 2.30982,-0.62055 z m -18.68545,-14.0658 q 0.6895,-1.7927 1.89612,-2.72352 1.20663,-0.9653 2.82695,-0.9653 0.93083,0 1.72375,0.34475 v 1.9306 q -0.62055,-0.4137 -1.68927,-0.4137 -2.03403,0 -3.34408,1.68927 -1.27557,1.68928 -1.27557,4.86098 v 9.89432 h -1.9306 v -17.927 h 1.68927 z m 37.26752,3.55093 q -0.58607,0 -1.03425,-0.44818 -0.4137,-0.44817 -0.4137,-1.03425 0,-0.62055 0.4137,-1.03425 0.4137,-0.4137 0.99978,-0.4137 0.62055,0 1.03425,0.4137 0.4137,0.4137 0.4137,1.03425 0,0.58608 -0.4137,1.03425 -0.4137,0.44818 -0.99978,0.44818 z m 20.9608,-14.16923 h 2.0685 v 23.37405 h 12.51442 v 1.86165 h -14.58292 z m 16.68595,16.2722 q 0,-2.68905 1.1032,-4.8265 1.13768,-2.13745 3.0338,-3.3096 1.89612,-1.20662 4.10252,-1.20662 2.2064,0 4.06805,1.17215 1.89613,1.17215 3.0338,3.3096 1.13768,2.13745 1.13768,4.86097 0,2.68905 -1.13768,4.8265 -1.13767,2.10298 -3.0338,3.3096 -1.86165,1.17215 -4.06805,1.17215 -2.2064,0 -4.10252,-1.17215 -1.89612,-1.17215 -3.0338,-3.3096 -1.1032,-2.13745 -1.1032,-4.8265 z m 2.03403,0 q 0,2.24088 0.82739,3.93015 0.8274,1.68928 2.24088,2.6201 1.44795,0.89635 3.13722,0.89635 1.72375,0 3.10275,-0.89635 1.41348,-0.93082 2.24088,-2.6201 0.8274,-1.68927 0.8274,-3.93015 0,-2.24087 -0.8274,-3.93015 -0.8274,-1.72375 -2.24088,-2.6201 -1.379,-0.93082 -3.10275,-0.93082 -1.68927,0 -3.13722,0.93082 -1.41348,0.89635 -2.24088,2.6201 -0.82739,1.68928 -0.82739,3.93015 z m 18.47858,-8.9635 6.2055,15.27243 5.7918,-15.27243 h 2.03402 l -7.17079,17.927 h -1.58585 l -7.51555,-17.927 z m 23.85669,-0.37922 q 2.2064,0 3.82673,1.06872 1.6548,1.06873 2.51667,2.8959 0.89635,1.7927 0.89635,3.9991 0,0.72398 -0.10342,1.5169 h -13.16945 q 0.1379,3.55093 1.86165,5.44705 1.75822,1.89613 4.5507,1.89613 1.55137,0 2.758,-0.65503 1.2411,-0.65502 1.9306,-1.96507 l 1.5169,0.86187 q -0.72398,1.72375 -2.4822,2.65458 -1.72375,0.93082 -3.82673,0.93082 -2.30982,0 -4.20595,-1.1032 -1.89612,-1.13767 -3.0338,-3.27512 -1.1032,-2.13745 -1.1032,-5.06783 0,-2.82695 1.06873,-4.89545 1.1032,-2.10297 2.93037,-3.20617 1.86165,-1.1032 4.06805,-1.1032 z m -0.069,1.7927 q -2.30982,0 -3.93015,1.58585 -1.62032,1.58585 -1.9306,4.48175 h 11.06648 q 0,-2.72353 -1.41348,-4.37833 -1.379,-1.68927 -3.79225,-1.68927 z m 38.3018,20.34025 v -31.92385 h 1.86165 v 31.92385 z"
         id="path1" /><path
         style="font-weight:300;-inkscape-font-specification:'HarmonyOS Sans SC Light';display:inline"
         d="m 583.14238,643.99353 h 31.37225 v 1.96507 h -31.37225 z m 34.09578,0.79292 q 4.8265,-2.99932 8.75665,-6.79157 3.93015,-3.82673 6.44682,-7.82583 h 1.68928 q 2.65457,4.137 6.51577,7.8603 3.8612,3.68883 8.72218,6.7571 l -1.17215,1.72375 q -4.6886,-3.06827 -8.5498,-6.72262 -3.82673,-3.65435 -6.3434,-7.48108 -2.65458,3.93015 -6.51578,7.5845 -3.8612,3.61988 -8.44637,6.6192 z m 15.06557,-3.82672 h 1.9306 v 20.5471 h -1.9306 z m 36.37113,3.68882 q 1.31005,5.17125 4.79203,8.79113 3.51645,3.61987 9.7909,6.27445 l -0.9653,1.75822 q -5.96418,-2.758 -9.44615,-6.0676 -3.4475,-3.34407 -4.99888,-7.89477 -1.27557,3.9991 -4.86097,7.5845 -3.5854,3.55092 -9.653,6.44682 l -1.03425,-1.68927 q 6.55025,-2.99933 10.13565,-6.82605 3.5854,-3.8612 4.17147,-8.37743 h -13.75552 v -1.72375 h 13.85895 v -8.37742 h -12.1352 v -1.75823 h 26.23547 v 1.75823 h -12.23862 v 8.37742 h 13.99685 v 1.72375 z m 34.47498,0 q 1.31005,5.17125 4.79203,8.79113 3.51645,3.61987 9.79089,6.27445 l -0.9653,1.75822 q -5.96417,-2.758 -9.44614,-6.0676 -3.4475,-3.34407 -4.99888,-7.89477 -1.27557,3.9991 -4.86097,7.5845 -3.5854,3.55092 -9.653,6.44682 l -1.03425,-1.68927 q 6.55025,-2.99933 10.13565,-6.82605 3.5854,-3.8612 4.17147,-8.37743 h -13.75552 v -1.72375 h 13.85895 v -8.37742 h -12.1352 v -1.75823 h 26.23547 v 1.75823 h -12.23862 v 8.37742 h 13.99684 v 1.72375 z m 35.57824,-11.34227 q -2.13745,4.5507 -4.86098,7.96372 h 5.7918 v 1.58585 h -7.1708 q -1.62032,1.7927 -4.24042,3.96463 h 8.37742 v 13.68657 H 724.97255 V 649.2682 q -1.6548,1.13768 -3.61987,2.37878 l -0.79293,-1.5169 q 6.03313,-3.79225 9.58405,-7.27423 h -8.89455 V 641.27 h 6.96395 v -4.99887 h -5.58495 v -1.62033 h 5.58495 v -4.4128 h 1.6548 v 4.4128 h 4.8265 v 1.62033 H 729.868 V 641.27 h 1.7927 q 3.27513,-3.75777 5.516,-8.65322 z m 9.653,10.30802 q 2.03402,2.51668 2.82695,4.4128 0.8274,1.89613 0.8274,3.96463 0,2.86142 -1.2411,4.03357 -1.2411,1.17215 -3.8612,1.17215 -1.1032,0 -2.41325,-0.17237 l -0.37923,-1.82718 q 1.41348,0.24133 2.99933,0.24133 1.58585,0 2.37877,-0.86188 0.79293,-0.86187 0.79293,-2.79247 0,-1.75823 -0.86188,-3.61988 -0.86187,-1.86165 -2.93037,-4.20595 l 3.27512,-10.03222 h -6.895 v 27.7179 h -1.72375 v -29.40718 h 10.37698 v 1.82718 z m -21.7882,9.17035 h 8.4119 v -4.4128 h -8.4119 z m 0,1.5169 v 4.6886 h 8.4119 v -4.6886 z m 59.5383,-19.5818 v 1.75823 h -18.7544 q -2.03403,4.44727 -4.75755,8.23952 v 16.85828 h -1.82718 v -14.4795 q -2.17192,2.68905 -4.8265,5.06782 l -1.13767,-1.58585 q 3.10275,-2.72352 5.7918,-6.3434 2.68905,-3.61987 4.6886,-7.75687 h -9.58405 v -1.75823 h 10.41145 q 1.1032,-2.51667 1.82717,-4.86097 l 1.7927,0.44817 q -0.62055,1.9306 -1.62032,4.4128 z m -1.34453,12.8247 h -8.8256 v 10.4804 h 10.17013 v 1.72375 h -21.89163 v -1.72375 h 9.89433 v -10.4804 h -8.20505 v -1.75822 h 8.20505 v -6.4813 h 1.82717 v 6.4813 h 8.8256 z m 16.75483,-3.13722 q -1.20663,-1.2411 -3.79225,-3.55093 v 8.79113 h -1.82718 v -10.27355 q -1.9306,4.03357 -5.3781,8.03267 l -0.86187,-1.58585 q 3.65435,-3.89567 5.86075,-8.8256 h -4.6886 v -1.6548 h 5.06782 v -5.06782 h 1.82718 v 5.06782 h 4.72307 v 1.6548 h -4.72307 v 1.9306 q 2.55115,2.0685 4.86097,4.20595 z m 2.65457,-12.2731 h 14.30713 v 16.8238 h -14.30713 z m 12.51443,5.13677 v -3.61987 h -10.7562 v 3.61987 z m 0,5.06783 v -3.61988 h -10.7562 v 3.61988 z m -10.7562,1.48242 v 3.61988 h 10.7562 v -3.61988 z m 1.75822,12.1352 q -0.6895,-0.9653 -1.96507,-2.6201 -1.27558,-1.6548 -1.96508,-2.44772 l 1.34453,-1.03425 q 0.65502,0.72397 1.96507,2.37877 1.31005,1.6548 1.99955,2.6201 z m 8.58428,-4.89545 q 0.9653,1.379 2.41325,3.65435 1.44795,2.24088 2.44772,3.93015 l -1.58585,0.9653 q -0.93082,-1.6548 -2.37877,-3.89567 -1.41348,-2.27535 -2.41325,-3.7233 z m -4.58518,5.86075 q 0.0345,-0.37922 0.17238,-2.99932 l 1.75822,0.4137 q -0.17237,2.58562 -0.24132,3.3096 -0.10343,1.27557 -0.44818,1.89612 -0.31027,0.65503 -0.99977,0.93083 -0.6895,0.2758 -2.10298,0.37922 -1.6548,0.1379 -3.68882,0.1379 -2.24088,0 -4.03358,-0.1379 -1.41347,-0.10342 -2.17192,-0.44817 -0.72398,-0.31028 -1.03425,-0.99978 -0.2758,-0.65502 -0.2758,-1.9306 v -6.23997 h 1.7927 v 5.61942 q 0,0.93083 0.17237,1.379 0.17238,0.4137 0.62055,0.62055 0.44818,0.17238 1.41348,0.2758 1.82717,0.17238 3.3096,0.17238 1.48242,0 3.27512,-0.17238 0.99978,-0.10342 1.48243,-0.2758 0.51712,-0.17237 0.72397,-0.58607 0.20685,-0.44818 0.2758,-1.34453 z m -21.16765,2.17193 q 1.03425,-1.58585 2.0685,-3.7233 1.03425,-2.17193 1.68928,-4.10253 l 1.6548,0.65503 q -0.65503,1.9306 -1.72375,4.137 -1.06873,2.17192 -2.13745,3.8612 z m 65.12331,-6.68815 q -0.069,2.3443 -0.17237,4.48175 -0.069,1.48242 -0.44818,2.27535 -0.37922,0.79292 -1.27557,1.17215 -0.89635,0.37922 -2.58563,0.51712 -2.17192,0.20685 -4.30937,0.20685 -2.0685,0 -4.30938,-0.20685 -1.62032,-0.1379 -2.51667,-0.62055 -0.89635,-0.44817 -1.31005,-1.41347 -0.4137,-0.9653 -0.4137,-2.68905 v -12.2731 l -2.13745,0.75845 -0.51712,-1.6548 2.65457,-0.9653 v -7.89478 h 1.68927 v 7.27423 l 4.61965,-1.6548 v -9.3772 h 1.68928 v 8.75665 l 7.23975,-2.6201 v 1.44795 q 0,2.758 -0.1379,5.72285 -0.1379,2.93037 -0.31028,4.65412 -0.1379,1.44795 -0.48265,2.17193 -0.34475,0.72397 -1.03425,1.03425 -0.6895,0.2758 -1.99955,0.2758 -1.03425,0 -1.86165,-0.1379 l -0.34475,-1.72375 q 0.72398,0.17237 1.75823,0.17237 0.86187,0 1.27557,-0.17237 0.44818,-0.20685 0.65503,-0.72398 0.24132,-0.51712 0.34475,-1.58585 0.44817,-4.10252 0.37922,-8.61875 l -5.48152,1.96508 v 14.2037 h -1.68928 v -13.58315 l -4.61965,1.6548 v 12.411 q 0,1.31005 0.2758,2.03402 0.2758,0.6895 0.93083,0.99978 0.65502,0.31027 1.9306,0.44817 1.9306,0.20685 3.7233,0.20685 1.7927,0 3.68882,-0.20685 1.34453,-0.1379 1.99955,-0.44817 0.6895,-0.31028 0.93083,-0.89635 0.2758,-0.58608 0.31027,-1.75823 0.0689,-2.41325 0.0689,-3.9991 z m -20.23682,-13.13498 q -0.51712,5.61943 -1.20662,8.8256 -0.65503,3.1717 -1.99955,5.6539 1.72375,1.5169 4.03357,3.68883 l -1.17215,1.379 q -2.58562,-2.4822 -3.75777,-3.5854 -0.9653,1.44795 -2.3443,2.99932 -1.34453,1.5169 -3.41303,3.48198 l -1.2411,-1.34453 q 2.03403,-1.89612 3.37855,-3.37855 1.34453,-1.48242 2.30983,-2.93037 -1.7927,-1.6548 -4.10253,-3.5854 1.20663,-4.89545 2.0685,-11.20438 h -3.1717 v -1.72375 h 3.37855 q 0.4137,-3.48197 0.62055,-6.895 l 1.68928,0.10343 q -0.24133,3.55092 -0.65503,6.79157 h 5.58495 z m -7.65345,10.54935 q 0.99978,0.8274 3.10275,2.68905 1.17215,-2.27535 1.7927,-5.27467 0.65503,-2.99933 1.1032,-7.96373 h -4.137 q -0.79292,6.41235 -1.86165,10.54935 z m 60.81387,-13.96237 v 1.9306 q 0,4.58517 -0.20685,9.7909 -0.20685,5.20572 -0.5516,8.99797 -0.1379,1.62033 -0.58607,2.51668 -0.4137,0.86187 -1.31005,1.20662 -0.86188,0.37923 -2.44772,0.37923 -1.31005,0.0689 -3.51645,-0.1379 l -0.9653,-0.0689 -0.31028,-1.86165 q 2.72353,0.31027 4.51623,0.31027 1.03425,0 1.58584,-0.2758 0.58608,-0.2758 0.86188,-0.93082 0.31027,-0.6895 0.44817,-1.96508 0.62055,-6.58472 0.62055,-15.65165 v -2.4822 h -9.41167 q -1.34452,3.34408 -2.4822,5.44705 l -1.58585,-1.06872 q 1.44795,-2.6201 2.65458,-5.86075 1.2411,-3.24065 2.03402,-6.27445 l 1.7927,0.37922 q -0.89635,3.3096 -1.75822,5.61943 z m -20.61604,-5.48153 q -0.62055,2.8959 -1.48243,5.68838 h 5.30915 v 23.8567 h -10.99752 v -23.8567 h 3.68882 q 0.44818,-1.27558 0.89635,-2.99933 0.44818,-1.72375 0.6895,-3.0338 z m -5.41258,15.34138 h 7.4466 v -7.89478 h -7.4466 z m 18.96125,6.51577 q -1.06872,-1.62032 -2.758,-3.89567 -1.68927,-2.27535 -2.82695,-3.61988 l 1.379,-1.06872 q 1.13768,1.34452 2.79248,3.55092 1.68927,2.2064 2.82695,3.8612 z m -18.96125,-4.75755 v 10.65278 h 7.4466 V 647.4755 Z m 58.64201,-12.2731 v 26.201 h -1.72375 v -2.2064 h -20.85737 v 2.30983 H 896.8649 V 635.2024 h 8.89455 q 0.5516,-1.17215 1.17215,-2.758 0.62055,-1.62032 0.9653,-2.6201 l 1.86165,0.48265 q -0.93082,2.79248 -1.9306,4.89545 z m -1.72375,10.96305 v -9.20482 h -20.85737 v 9.20482 z m -20.85737,1.75823 v 9.5151 h 20.85737 v -9.5151 z m 60.0899,-13.99685 v 1.68927 H 935.0287 v 8.4119 q 0,4.20595 -0.48265,7.1708 -0.44817,2.93038 -1.5169,5.44705 -1.03425,2.4822 -2.93037,5.27468 l -1.6548,-1.03425 q 2.3443,-3.1717 3.4475,-6.10208 1.13767,-2.96485 1.379,-6.7571 -3.1717,1.55138 -5.2402,2.65458 l -0.5516,-1.75823 q 0.6895,-0.34475 1.48242,-0.72397 0.79293,-0.37923 1.5169,-0.72398 l 2.86143,-1.379 v -0.79292 -11.37675 h 12.34205 q -0.9653,-1.82718 -1.99955,-3.65435 l 1.7927,-0.44818 q 1.34452,2.3443 2.2064,4.10253 z m -27.89028,10.4804 q -0.58607,-1.86165 -2.68905,-7.51555 l 1.48243,-0.58608 q 0.65502,1.6548 1.48242,3.9991 0.86188,2.30983 1.27558,3.51645 z m 12.37653,4.99887 q -0.17238,1.55138 -0.44818,2.72353 l 5.34363,6.6192 -1.31005,1.13767 q -0.6895,-0.99977 -2.0685,-2.72352 -1.34453,-1.72375 -2.55115,-3.1717 -0.8274,2.10297 -2.41325,3.96462 -1.55138,1.86165 -4.137,3.8612 l -1.20663,-1.27557 q 3.4475,-2.55115 5.13678,-5.17125 1.68927,-2.6201 2.10297,-5.96418 h -5.61942 v -1.62032 h 5.75732 q 0.10343,-4.03358 0.10343,-5.72285 h -2.41325 q -0.86188,2.24087 -2.03403,4.37832 l -1.31005,-0.89635 q 0.9653,-1.68927 1.9306,-4.24042 0.9653,-2.55115 1.44795,-4.75755 l 1.62033,0.31027 q -0.37923,1.5169 -1.06873,3.61988 h 7.34318 v 1.58585 h -3.96463 l -0.1379,5.72285 h 4.61965 v 1.62032 z m 7.55002,11.4457 h -1.58585 v -20.51262 h 8.44638 v 20.51262 h -1.55138 v -2.72352 h -5.30915 z m 5.30915,-4.37832 v -14.4795 h -5.30915 v 14.4795 z"
         id="path2" /></g><path
       style="font-weight:bold;font-size:216.828px;font-family:'HarmonyOS Sans SC';-inkscape-font-specification:'HarmonyOS Sans SC Bold';fill:#ffffff;stroke-width:0.0487859"
       d="m 180.49845,451.63523 q 23.2006,0 41.8478,9.32361 18.86404,9.3236 29.70544,27.32033 10.8414,17.77989 10.8414,42.49829 0,24.71839 -10.8414,42.71511 -10.8414,17.99673 -29.48861,27.53716 -18.64721,9.3236 -42.06463,9.3236 h -52.90603 v -158.7181 z m -3.68608,131.83143 q 25.58571,0 39.24587,-13.66016 13.66017,-13.66017 13.66017,-39.02904 0,-24.93522 -13.877,-38.59539 -13.66016,-13.87699 -39.02904,-13.87699 h -17.77989 v 105.16158 z m 129.44632,-85.43023 29.05496,74.15517 27.1035,-74.15517 h 31.44006 L 346.37188,610.1365 H 321.87031 L 272.86718,498.03643 Z m 174.11275,-52.68921 h 30.13909 v 165.00611 h -26.45302 q -1.08414,-12.57602 -1.73462,-16.91258 -5.85436,9.75726 -15.39479,14.7443 -9.3236,4.77022 -20.38183,4.77022 -13.87699,0 -25.36888,-6.9385 -11.49188,-6.93849 -18.43038,-20.165 -6.93849,-13.44334 -6.93849,-31.65689 0,-18.43038 6.93849,-31.65689 6.9385,-13.44333 18.43038,-20.38183 11.49189,-6.9385 25.36888,-6.9385 10.19091,0 18.86403,4.11974 8.88995,4.11973 14.96114,12.57602 z m -26.88668,141.80552 q 11.27506,0 19.08087,-8.23947 7.80581,-8.23946 7.80581,-24.71839 0,-16.2621 -7.80581,-24.06791 -7.80581,-8.02263 -19.08087,-8.02263 -11.92554,0 -19.29769,8.45629 -7.15532,8.45629 -7.15532,23.63425 0,15.17796 7.15532,24.06791 7.37215,8.88995 19.29769,8.88995 z m 184.73738,-59.19405 q 26.23619,9.32361 26.23619,36.64393 0,21.46598 -15.82844,33.60834 -15.61162,12.14237 -44.01609,12.14237 h -63.31377 v -158.7181 h 57.45942 q 25.36887,0 41.19732,11.70872 16.04527,11.49188 16.04527,32.5242 0,21.89963 -17.7799,32.09054 z M 572.0896,478.95556 v 37.51125 h 23.63426 q 12.79285,0 20.165,-5.20387 7.58898,-5.4207 7.58898,-14.31065 0,-8.67312 -7.37215,-13.22651 -7.37215,-4.77022 -20.38183,-4.77022 z M 602.01187,583.033 q 14.31065,0 21.89963,-5.20387 7.8058,-5.20387 7.8058,-14.7443 0,-9.54043 -7.8058,-14.96113 -7.58898,-5.4207 -22.11646,-5.4207 H 572.0896 v 40.33 z m 143.75707,-87.81534 q 6.50484,0 12.14237,1.95145 5.63752,1.95146 8.67312,4.98705 l -11.70872,23.2006 q -5.63752,-3.90291 -12.79285,-3.90291 -11.70871,0 -18.86403,9.75726 -6.9385,9.75726 -6.9385,26.88667 v 52.25555 h -30.13909 v -112.3169 h 26.45301 q 1.08414,13.00968 1.95146,17.77989 4.98704,-10.19091 13.00968,-15.39478 8.02263,-5.20388 18.21355,-5.20388 z m 111.23281,32.30738 q 13.2265,4.98704 20.165,14.7443 6.9385,9.54043 6.9385,23.85108 0,14.7443 -7.58898,25.36888 -7.37216,10.40774 -20.16501,16.04527 -12.57602,5.4207 -27.97081,5.4207 -19.73135,0 -34.47565,-9.32361 -14.52748,-9.3236 -20.59866,-27.1035 l 24.93522,-14.31064 q 3.46925,11.27505 11.49188,17.12941 8.02264,5.63753 17.99673,5.63753 9.75726,0 16.2621,-5.63753 6.72166,-5.63753 6.72166,-15.61162 0,-21.89963 -33.39151,-21.89963 h -5.85435 v -26.01936 h 8.45629 q 12.35919,0 18.86403,-5.85435 6.72167,-6.07119 6.72167,-14.96114 0,-8.23946 -5.4207,-13.2265 -5.4207,-4.98705 -14.09382,-4.98705 -9.3236,0 -16.2621,6.07119 -6.72167,5.85435 -10.40774,16.91258 l -23.85108,-13.66016 q 5.63752,-18.21356 19.73135,-27.75399 14.09382,-9.75726 33.39151,-9.75726 14.96113,0 26.23619,5.63753 11.49188,5.4207 17.77989,15.39479 6.28801,9.97409 6.28801,22.98377 0,12.14237 -5.63752,21.03231 -5.4207,8.88995 -16.2621,13.877 z m 46.18433,26.66984 q 0,-17.56307 7.80581,-31.0064 8.02263,-13.44334 21.24914,-20.59866 13.22651,-7.37216 28.6213,-7.37216 15.17796,0 28.18764,7.37216 13.22653,7.15532 21.03233,20.59866 8.0226,13.44333 8.0226,31.0064 0,17.56307 -8.0226,31.0064 -7.8058,13.44334 -21.03233,20.59866 -13.00968,7.15533 -28.18764,7.15533 -15.39479,0 -28.6213,-7.15533 -13.22651,-7.15532 -21.24914,-20.59866 -7.80581,-13.44333 -7.80581,-31.0064 z m 31.22323,0 q 0,14.96113 7.37215,23.85108 7.58898,8.67312 18.86404,8.67312 11.27506,0 18.64721,-8.67312 7.37215,-8.88995 7.37215,-23.85108 0,-14.96113 -7.37215,-23.85108 -7.37215,-8.88995 -18.64721,-8.88995 -11.27506,0 -18.86404,8.88995 -7.37215,8.88995 -7.37215,23.85108 z"
       id="text21"
       inkscape:label="title"
       aria-label="DvdBr3o" /></g></svg>
