<svg xmlns="http://www.w3.org/2000/svg" version="1.0" width="5000.000000pt" height="5000.000000pt" viewBox="0 0 5000.000000 5000.000000" preserveAspectRatio="xMidYMid meet">

<g transform="translate(0.000000,5000.000000) scale(0.100000,-0.100000)" fill="#262AE1" stroke="#fff">
<path d="M0 25000 l0 -25000 25000 0 25000 0 0 25000 0 25000 -25000 0 -25000 0 0 -25000z m19130 11551 c1775 -72 3194 -222 4690 -496 2131 -390 4042 -984 5957 -1851 1962 -888 3674 -1966 5178 -3259 681 -586 1367 -1265 1957 -1938 1611 -1837 2918 -4011 3928 -6537 143 -357 372 -967 374 -995 0 -12 -1183 -1622 -2994 -4072 l-2994 -4053 -1051 1 c-3642 2 -19465 36 -19471 42 -7 7 822 3096 835 3109 3 4 991 10 2194 14 l2189 7 -8 4522 -7 4522 1342 7 c738 3 1346 4 1350 2 4 -3 11 -1440 14 -3193 4 -1753 10 -3788 14 -4521 l6 -1332 5311 0 5311 1 2165 2690 c1191 1480 2166 2700 2168 2713 4 29 -82 312 -164 540 -385 1065 -1027 2227 -1817 3286 -1480 1985 -3483 3690 -5917 5037 -746 413 -1497 776 -2350 1136 -124 53 -315 136 -425 185 -642 287 -1516 590 -2380 827 -1679 460 -3448 726 -5280 795 -568 21 -1545 12 -2140 -20 -2108 -115 -4181 -503 -6234 -1165 -129 -41 -238 -72 -242 -68 -12 14 -1629 3076 -1626 3080 7 6 463 112 722 167 2148 455 4563 742 6875 816 184 6 385 12 445 14 237 7 1834 -3 2075 -13z"/>
</g>
</svg>